<svg xmlns="http://www.w3.org/2000/svg" viewBox="0 0 7358 1235"><filter id="c"><feGaussianBlur stdDeviation="55" /></filter><path fill="#868c8e" d="M0 0h7358v1207H0z"/><g filter='url(#c)' fill-opacity='.5'><ellipse fill="#ecf3f8" fill-opacity=".5" rx="1" ry="1" transform="rotate(-171.5 1482.2 116) scale(1586.9829 347.56643)"/><ellipse fill="#484236" fill-opacity=".5" rx="1" ry="1" transform="matrix(-5346.59675 -439.57027 31.35363 -381.36161 1616.9 1075.6)"/><path fill="#141111" fill-opacity=".5" d="M1957.2 1430.8l1474.3-330.5 1813 370.4L5828 996.3z"/><path fill="#cacecf" fill-opacity=".5" d="M2020.5 858.7l71.8-739L6908 464.3l-63 48.7z"/><path fill="#33312d" fill-opacity=".5" d="M2228.5 892.9l314.3 496L837.6 307 278 596.9z"/><path fill="#46637f" fill-opacity=".5" d="M7803.5 560.5L3693.4-43.1l3391.5-402.4z"/><path fill="#d7dfd8" fill-opacity=".5" d="M388.2 1266.9l36-256.2 768.5 108-36 256.2z"/><path fill="#b8c2cb" fill-opacity=".5" d="M1307.8 301.8l-1437.1 57.5L1825-445.5z"/></g></svg>