<svg xmlns="http://www.w3.org/2000/svg" viewBox="0 0 4160 3120"><filter id="b"><feGaussianBlur stdDeviation="12" /></filter><path fill="#8d8981" d="M0 0h4160v3120H0z"/><g filter="url(#b)" transform="translate(8.1 8.1) scale(16.25)" fill-opacity=".5"><ellipse fill="#492c07" rx="1" ry="1" transform="matrix(-.05285 46.26422 -235.68555 -.26921 133.9 154.4)"/><ellipse fill="#cedeef" rx="1" ry="1" transform="matrix(7.56165 -49.32 150.67967 23.10192 121.3 53.7)"/><ellipse fill="#c69669" rx="1" ry="1" transform="rotate(27.3 -182.8 461.8) scale(40.34604 34.19073)"/><ellipse fill="#421b00" rx="1" ry="1" transform="matrix(28.35639 -5.05781 3.65998 20.5195 98.4 122.9)"/><ellipse fill="#dfc9b0" cx="51" cy="84" rx="49" ry="31"/><path d="M256.1 134.5l-25.2-9.7 9-23.3 25.2 9.7z"/><ellipse fill="#1d3748" cx="118" cy="191" rx="255" ry="19"/><ellipse fill="#839cb2" rx="1" ry="1" transform="rotate(97.4 61.2 58.5) scale(38.50077 254.99998)"/></g></svg>