<svg xmlns="http://www.w3.org/2000/svg" viewBox="0 0 3616 664"><filter id="b"><feGaussianBlur stdDeviation="12" /></filter><path fill="#829976" d="M0 0h3616v663H0z"/><g filter="url(#b)" transform="translate(7 7) scale(14.125)" fill-opacity=".5"><ellipse fill="#c3d6de" rx="1" ry="1" transform="matrix(19.10164 -6.43427 14.19092 42.12908 125 21.6)"/><ellipse fill="#404b2a" rx="1" ry="1" transform="rotate(20.2 -31 175.1) scale(32.75162 18.88336)"/><path fill="#3c5817" d="M229-9L156 8l72 20z"/><ellipse fill="#c3d0ae" cx="181" cy="43" rx="29" ry="29"/><ellipse fill="#d0efc6" rx="1" ry="1" transform="rotate(-104 129.3 -64.1) scale(10.98555 28.01777)"/><path fill="#b5c69b" d="M21 61L3 39l63-19z"/><path fill="#001613" d="M169.4 22l-10.2-4 5.4-14 10.2 4z"/><ellipse fill="#167f5c" rx="1" ry="1" transform="matrix(-30.0841 2.6361 -.70464 -8.04164 75.3 46)"/></g></svg>