<svg xmlns="http://www.w3.org/2000/svg" viewBox="0 0 4160 2340"><filter id="b"><feGaussianBlur stdDeviation="12" /></filter><path fill="#90907b" d="M0 0h4160v2340H0z"/><g filter="url(#b)" transform="translate(8.1 8.1) scale(16.25)" fill-opacity=".5"><ellipse fill="#ccd8fa" rx="1" ry="1" transform="matrix(-177.07737 10.20754 -2.3458 -40.69428 110.6 27.4)"/><ellipse fill="#544800" rx="1" ry="1" transform="matrix(14.19194 -40.69623 155.99361 54.39943 65.7 129.5)"/><ellipse fill="#5c4d0f" rx="1" ry="1" transform="matrix(96.63855 20.71751 -6.677 31.14542 241.4 103.4)"/><ellipse fill="#33382a" rx="1" ry="1" transform="matrix(-76.083 11.64233 -3.44404 -22.50693 16 96.8)"/><path fill="#baa870" d="M32 92l37 42 77-39z"/><ellipse fill="#766c31" cx="238" cy="106" rx="58" ry="58"/><ellipse fill="#bcb082" rx="1" ry="1" transform="rotate(65.7 11.6 197.2) scale(13.9037 45.66767)"/><path fill="#280600" d="M89 115h54v18H89z"/></g></svg>