<svg xmlns="http://www.w3.org/2000/svg" viewBox="0 0 4160 2340"><filter id="b"><feGaussianBlur stdDeviation="12" /></filter><path fill="#6f665a" d="M0 0h4160v2340H0z"/><g filter="url(#b)" transform="translate(8.1 8.1) scale(16.25)" fill-opacity=".5"><ellipse fill="#d0e9ff" cx="153" rx="72" ry="72"/><ellipse fill="#390000" rx="1" ry="1" transform="matrix(-44.83066 24.23132 -45.3952 -83.9862 38.4 40)"/><ellipse rx="1" ry="1" transform="matrix(12.78511 -20.01522 47.73414 30.49112 39.7 9.6)"/><ellipse fill="#9da1b6" cx="151" cy="61" rx="45" ry="45"/><path fill="#ea983c" d="M83 85.2l-79.6-46L13 22.8l79.7 46z"/><ellipse fill="#8d6718" rx="1" ry="1" transform="matrix(-3.7287 30.40803 -96.79208 -11.86883 38.1 127)"/><path fill="#334321" d="M254 88L84 122l164 22z"/><ellipse fill="#567297" rx="1" ry="1" transform="matrix(-25.66535 -13.56294 30.2899 -57.318 236.8 42.6)"/></g></svg>