<svg xmlns="http://www.w3.org/2000/svg" viewBox="0 0 2500 4444"><filter id="b"><feGaussianBlur stdDeviation="12" /></filter><path fill="#65766a" d="M0 0h2499v4444H0z"/><g filter="url(#b)" transform="translate(8.7 8.7) scale(17.35938)" fill-opacity=".5"><path fill="#00141a" d="M159 121L142-16-16 4z"/><ellipse fill="#fff" cx="92" cy="114" rx="15" ry="27"/><ellipse fill="#a6af9a" rx="1" ry="1" transform="matrix(142.98405 2.13578 -.87985 58.90317 79.1 198.8)"/><path fill="#362616" d="M-16 85.4v34.4l98.4 42.6 12-15.5z"/><ellipse fill="#fff" cx="93" cy="115" rx="13" ry="21"/><ellipse fill="#011f38" rx="1" ry="1" transform="matrix(-116.23122 83.30249 -15.34576 -21.4118 10.7 23)"/><ellipse fill="#ee8f8c" rx="1" ry="1" transform="matrix(-15.33016 -.06357 .05524 -13.32037 66.7 123.6)"/><ellipse fill="#759567" rx="1" ry="1" transform="rotate(96.6 26.2 106.1) scale(20.70887 39.36375)"/></g></svg>