<svg xmlns="http://www.w3.org/2000/svg" viewBox="0 0 2500 1406"><filter id="b"><feGaussianBlur stdDeviation="12" /></filter><path fill="#596b75" d="M0 0h2500v1396H0z"/><g filter="url(#b)" transform="translate(4.9 4.9) scale(9.76563)" fill-opacity=".5"><ellipse rx="1" ry="1" transform="matrix(232.39811 7.64409 -1.08282 32.9203 86.7 117.5)"/><ellipse fill="#becde8" rx="1" ry="1" transform="matrix(140.48569 1.5055 -.50377 47.0091 152.5 41)"/><ellipse fill="#00140b" rx="1" ry="1" transform="matrix(3.39644 -34.02798 97.40355 9.72217 44.6 107.9)"/><ellipse fill="#ecd9b6" rx="1" ry="1" transform="matrix(40.12166 -1.09642 .28133 10.29494 27 22.7)"/><ellipse fill="#cad7e0" rx="1" ry="1" transform="rotate(-9.7 520.3 -1130.3) scale(87.13845 11.16584)"/><ellipse fill="#0a2e2c" cx="255" cy="114" rx="113" ry="30"/><path fill="#514c4c" d="M108.6 50.3l11.1 12.9-55.8-21 6-30z"/><ellipse fill="#7c8290" cx="17" cy="49" rx="25" ry="25"/></g></svg>