<svg xmlns="http://www.w3.org/2000/svg" viewBox="0 0 4160 2340"><filter id="b"><feGaussianBlur stdDeviation="12" /></filter><path fill="#5e625f" d="M0 0h4160v2340H0z"/><g filter="url(#b)" transform="translate(8.1 8.1) scale(16.25)" fill-opacity=".5"><ellipse fill="#fff" rx="1" ry="1" transform="matrix(254.04705 -22.0249 2.56564 29.59346 85.8 13.6)"/><ellipse cx="145" cy="103" rx="76" ry="76"/><ellipse fill="#fbffff" rx="1" ry="1" transform="matrix(11.9829 28.26857 -79.55947 33.72483 56.2 24.2)"/><ellipse fill="#070a00" rx="1" ry="1" transform="matrix(46.52682 -16.14155 20.5798 59.31974 231.8 104.1)"/><ellipse fill="#edf4fa" rx="1" ry="1" transform="matrix(193.17844 25.4891 -1.94273 14.72369 200 23.6)"/><ellipse fill="#080b00" rx="1" ry="1" transform="matrix(94.7216 -37.95067 8.4885 21.18658 81.4 73.7)"/><path fill="#000500" d="M82 37h139v29H82z"/><ellipse fill="#6a5540" cx="100" cy="83" rx="126" ry="9"/></g></svg>