<svg xmlns="http://www.w3.org/2000/svg" viewBox="0 0 3616 664"><filter id="b"><feGaussianBlur stdDeviation="12" /></filter><path fill="#829976" d="M0 0h3616v663H0z"/><g filter="url(#b)" transform="translate(7 7) scale(14.125)" fill-opacity=".5"><ellipse fill="#c0d5dd" rx="1" ry="1" transform="matrix(-20.57855 -99.9515 20.65896 -4.25338 125.3 28.2)"/><ellipse fill="#3f5330" rx="1" ry="1" transform="matrix(13.33818 -15.36579 27.24893 23.65326 56.8 21.4)"/><ellipse fill="#486219" rx="1" ry="1" transform="rotate(-65.6 111.2 -154.2) scale(13.76919 31.75009)"/><ellipse fill="#b6ceb4" cx="184" cy="45" rx="65" ry="20"/><path fill="#2a432a" d="M164 1.9l-15.2 43.3 1-22.3 59.8-13.5z"/><path fill="#b3c194" d="M8.1 62l67.3-42-59.5 11.6L-12.3 62z"/><path fill="#484e3b" d="M27 5h62v22H27z"/><path fill="#d5d4a2" d="M209 22l-32-11-30 30z"/></g></svg>