<svg xmlns="http://www.w3.org/2000/svg" viewBox="0 0 4160 2340"><filter id="b"><feGaussianBlur stdDeviation="12" /></filter><path fill="#738569" d="M0 0h4160v2340H0z"/><g filter="url(#b)" transform="translate(8.1 8.1) scale(16.25)" fill-opacity=".5"><ellipse fill="#fff" cx="172" rx="89" ry="33"/><ellipse fill="#3b3c0e" rx="1" ry="1" transform="matrix(-1.80161 33.26586 -131.31361 -7.1117 49.6 71.4)"/><ellipse fill="#062812" rx="1" ry="1" transform="matrix(3.32626 45.55568 -35.38316 2.5835 255 80.8)"/><ellipse fill="#fff" cx="142" rx="128" ry="16"/><ellipse fill="#2e4734" rx="1" ry="1" transform="matrix(-12.48342 150.47576 -14.39222 -1.19397 71.5 62.6)"/><ellipse fill="#81b1af" rx="1" ry="1" transform="matrix(-1.75113 32.2812 -72.78887 -3.94851 158.9 137.9)"/><path fill="#fffbff" d="M186.6 90l5.4-17 16 15.8-10.8 8z"/><path fill="#000902" d="M-16 67l40 4-38 88z"/></g></svg>