<svg xmlns="http://www.w3.org/2000/svg" viewBox="0 0 3088 4160"><filter id="c"><feGaussianBlur stdDeviation="55" /></filter><path fill="#566349" d="M0 0h3087v4160H0z"/><g filter='url(#c)' fill-opacity='.5'><ellipse fill="#bdb8c0" fill-opacity=".5" rx="1" ry="1" transform="matrix(-383.25965 -127.9891 228.25798 -683.51189 2091.4 1342.2)"/><ellipse fill="#060500" fill-opacity=".5" rx="1" ry="1" transform="rotate(-171.1 1225.4 1240.8) scale(2005.55019 407.84819)"/><path fill="#bcbec3" fill-opacity=".5" d="M-251.9-8.1L1682-219.4 219.4 950.6z"/><ellipse fill-opacity=".5" rx="1" ry="1" transform="rotate(167.8 666 459.2) scale(313.92151 563.3681)"/><path fill="#c2bbc0" fill-opacity=".5" d="M1711-352.9l227.3-8 72 2062.6-227.3 7.9z"/><ellipse fill="#354c17" fill-opacity=".5" rx="1" ry="1" transform="matrix(-677.90302 -214.44187 296.0549 -935.9017 965.2 2347.6)"/><ellipse fill="#819d48" fill-opacity=".5" rx="1" ry="1" transform="matrix(35.83646 512.48531 -917.243 64.13988 156.2 999.9)"/><ellipse fill="#738651" fill-opacity=".5" rx="1" ry="1" transform="matrix(-693.56021 1105.12101 -360.53114 -226.26486 2800.3 1007.9)"/></g></svg>