<svg xmlns="http://www.w3.org/2000/svg" viewBox="0 0 3088 4160"><filter id="b"><feGaussianBlur stdDeviation="12" /></filter><path fill="#5e5c3f" d="M0 0h3087v4160H0z"/><g filter="url(#b)" transform="translate(8.1 8.1) scale(16.25)" fill-opacity=".5"><ellipse fill="#0c1402" rx="1" ry="1" transform="matrix(-64.76464 89.08816 -46.18744 -33.577 21.4 43.5)"/><ellipse fill="#98b99f" rx="1" ry="1" transform="matrix(15.85248 16.41572 -51.31443 49.55377 140.2 46.2)"/><ellipse fill="#99a0c1" cx="165" cy="250" rx="39" ry="19"/><ellipse fill="#1a5500" rx="1" ry="1" transform="matrix(-36.31202 -24.83046 17.45891 -25.5319 166.5 110.4)"/><ellipse fill="#876051" rx="1" ry="1" transform="matrix(-45.8306 -22.8503 49.60217 -99.48657 66 197.6)"/><ellipse fill="#010" rx="1" ry="1" transform="rotate(-126.6 118.5 70.6) scale(27.39411 11.87551)"/><ellipse fill="#d0b7a4" rx="1" ry="1" transform="rotate(142 -10.2 52.1) scale(36.59539 2.61182)"/><path fill="#82a75d" d="M122 73l83-27L46 18z"/></g></svg>